<svg xmlns="http://www.w3.org/2000/svg" viewBox="0 0 20 20" fill="currentColor"><rect width="3" height="2" y="7" fill="currentColor" rx="1"/><rect width="3" height="2" y="3" fill="currentColor" rx="1"/><rect width="3" height="2" y="11" fill="currentColor" rx="1"/><rect width="3" height="2" y="15" fill="currentColor" rx="1"/><path fill="currentColor" d="M5 8a1 1 0 0 1 1-1h13a1 1 0 1 1 0 2H6a1 1 0 0 1-1-1ZM5 4a1 1 0 0 1 1-1h13a1 1 0 1 1 0 2H6a1 1 0 0 1-1-1ZM5 12a1 1 0 0 1 1-1h13a1 1 0 1 1 0 2H6a1 1 0 0 1-1-1ZM5 16a1 1 0 0 1 1-1h13a1 1 0 1 1 0 2H6a1 1 0 0 1-1-1Z"/></svg>