<svg xmlns="http://www.w3.org/2000/svg" viewBox="0 0 20 20" fill="currentColor"><rect width="2" height="2" x="3" y="7" fill="currentColor" rx="1"/><rect width="2" height="2" x="3" y="3" fill="currentColor" rx="1"/><rect width="2" height="2" x="3" y="11" fill="currentColor" rx="1"/><rect width="2" height="2" x="3" y="15" fill="currentColor" rx="1"/><path fill="currentColor" d="M7 8a1 1 0 0 1 1-1h8a1 1 0 1 1 0 2H8a1 1 0 0 1-1-1ZM7 4a1 1 0 0 1 1-1h8a1 1 0 1 1 0 2H8a1 1 0 0 1-1-1ZM7 12a1 1 0 0 1 1-1h8a1 1 0 1 1 0 2H8a1 1 0 0 1-1-1ZM7 16a1 1 0 0 1 1-1h8a1 1 0 1 1 0 2H8a1 1 0 0 1-1-1Z"/></svg>