<svg xmlns="http://www.w3.org/2000/svg" viewBox="0 0 20 20" fill="currentColor"><path d="M2 5a1 1 0 0 1 1-1h2a1 1 0 0 1 0 2H3a1 1 0 0 1-1-1zm6 0a1 1 0 0 1 1-1h8a1 1 0 1 1 0 2H9a1 1 0 0 1-1-1zm0 10a1 1 0 0 1 1-1h8a1 1 0 1 1 0 2H9a1 1 0 0 1-1-1zm-6 0a1 1 0 0 1 1-1h2a1 1 0 1 1 0 2H3a1 1 0 0 1-1-1zm12-5a1 1 0 0 1 1-1h2a1 1 0 1 1 0 2h-2a1 1 0 0 1-1-1zM2 10a1 1 0 0 1 1-1h8a1 1 0 1 1 0 2H3a1 1 0 0 1-1-1z"/><path fill-rule="evenodd" d="M7 8a3 3 0 1 0 0-6 3 3 0 0 0 0 6zm0-2a1 1 0 1 0 0-2 1 1 0 0 0 0 2zm6 7a3 3 0 1 0 0-6 3 3 0 0 0 0 6zm0-2a1 1 0 1 0 0-2 1 1 0 0 0 0 2z"/><path fill-rule="evenodd" d="M13 13a3 3 0 1 0 0-6 3 3 0 0 0 0 6zm0-2a1 1 0 1 0 0-2 1 1 0 0 0 0 2zm-6 7a3 3 0 1 0 0-6 3 3 0 0 0 0 6zm0-2a1 1 0 1 0 0-2 1 1 0 0 0 0 2z"/></svg>